<?xml version="1.0" standalone="no"?>
<!DOCTYPE svg PUBLIC "-//W3C//DTD SVG 20010904//EN" "http://www.w3.org/TR/2001/REC-SVG-20010904/DTD/svg10.dtd">
<svg version="1.0" xmlns="http://www.w3.org/2000/svg"
    width="96.000000pt" height="96.000000pt" viewBox="0 0 96.000000 96.000000"
    preserveAspectRatio="xMidYMid meet">

    <g transform="translate(0.000000,96.000000) scale(0.100000,-0.100000)"
        fill="#000000" stroke="none">
        <path
            d="M376 861 c-156 -63 -237 -200 -208 -353 21 -111 85 -208 232 -353
l81 -80 102 105 c165 169 209 250 211 385 1 65 -3 89 -22 127 -72 147 -256
225 -396 169z m181 -76 c72 -21 136 -92 154 -168 10 -45 10 -68 0 -112 -16
-69 -88 -180 -170 -260 l-61 -59 -61 59 c-187 184 -226 354 -111 477 67 72
148 93 249 63z" />
        <path
            d="M425 614 c-33 -36 -33 -78 1 -109 15 -14 39 -25 54 -25 37 0 80 42
80 78 0 40 -41 82 -80 82 -21 0 -39 -9 -55 -26z" />
    </g>
</svg>